<svg viewBox="0 0 1200 120" xmlns="http://www.w3.org/2000/svg" preserveAspectRatio="none">
  <path d="M0,0V46.29c47.09,22.26,98.59,36,149.8,42.22,38.34,4.56,76.77,6.51,115.21,6.14,68.46-.68,136.67-5.51,204.8-11.67s136.5-12.33,204.8-9.33c59.78,2.56,118.75,10.47,178.53,14.89,53.29,3.92,107.65,3.29,161.1-1.78s108.1-13.55,162-17.22c34.65-2.4,69.17-3.15,103.8-3.75V0Z" opacity=".25" class="shape-fill"></path>
  <path d="M0,0V15.81C47.09,22.26,98.59,36,149.8,42.22c38.34,4.56,76.77,6.51,115.21,6.14,68.46-.68,136.67-5.51,204.8-11.67s136.5-12.33,204.8-9.33c59.78,2.56,118.75,10.47,178.53,14.89,53.29,3.92,107.65,3.29,161.1-1.78s108.1-13.55,162-17.22c34.65-2.4,69.17-3.15,103.8-3.75V0Z" opacity=".5" class="shape-fill"></path>
  <path d="M0,0V5.66C47.09,22.26,98.59,36,149.8,42.22c38.34,4.56,76.77,6.51,115.21,6.14,68.46-.68,136.67-5.51,204.8-11.67s136.5-12.33,204.8-9.33c59.78,2.56,118.75,10.47,178.53,14.89,53.29,3.92,107.65,3.29,161.1-1.78s108.1-13.55,162-17.22c34.65-2.4,69.17-3.15,103.8-3.75V0Z" class="shape-fill"></path>
</svg>